<svg version="1.1" id="Capa_1" xmlns="http://www.w3.org/2000/svg" xmlns:xlink="http://www.w3.org/1999/xlink" viewBox="-1.77 -1.77 21.21 21.21" xml:space="preserve" fill="#000000" stroke="#000000" stroke-width="0.35332">
<g id="SVGRepo_bgCarrier" stroke-width="0" transform="translate(0,0), scale(1)">
<path transform="translate(-1.77, -1.77), scale(0.6628125)" d="M16,30.155320535030434C18.706578250738303,30.849892647599948,21.890340303701336,30.299055074064658,24.04975004755105,28.525655568849942C26.168204725846174,26.785890112567998,26.383350621533868,23.710725187170997,27.07677984855294,21.058595858880587C27.660768842224435,18.82503794530221,27.768170061716166,16.616790539054314,27.767077878020558,14.308149617392216C27.765801354893462,11.609854870350308,28.45250285591724,8.7250454686878,27.069848832282442,6.407921384321199C25.614909173339925,3.969657243467482,23.05281175382022,1.617475029711746,20.213631639029174,1.6496884975783512C17.30821266029975,1.6826535146347674,15.92710294065834,5.485076589634064,13.229620312735076,6.564953252203846C10.934288127242867,7.483838005825637,8.168298300961833,6.143294024491455,6.003825621941379,7.3382655948516184C3.4399811566430465,8.753724092689193,1.068518149710192,10.924582091015523,0.24325599066518144,13.734522227422323C-0.6167576281827907,16.662787820326564,-0.5091458760015528,20.332013349441493,1.5174480395293592,22.61395986694007C3.556917871970939,24.91040467811689,7.505375895913435,23.560541749929772,10.229511771046745,24.979054951148534C12.568757998434373,26.19714824992283,13.445387174777403,29.499746351528433,16,30.155320535030434"
    fill="#7ed0ec" strokewidth="0"
    >
    </path>
    </g><g id="SVGRepo_tracerCarrier" stroke-linecap="round" stroke-linejoin="round" stroke="#CCCCCC" stroke-width="0.35332"></g>
    <g id="SVGRepo_iconCarrier">
    <g>
        <path style="fill:#ffffff;" d="M3.482,2.122c0.033,0.022,0.06,0.033,0.092,0.055C3.603,2.22,3.608,2.268,3.605,2.315 c0,0.003,0.002,0.008,0.002,0.011C3.593,2.48,3.47,2.646,3.592,2.741c0.677,0.531,1.425,0.924,0.635,2.014 C3.883,5.23,4.85,4.953,4.903,5.125C4.876,5.932,3.742,5.61,3.998,6.276c0.26,0.677,0.584-0.066,0.887-0.162 c0.025-0.007,0.149,0.144,0.14,0.207c-0.232,1.52,0.792,0.382,1.277,0.599c-0.823,1.194-0.41,1.52,0.906,1.347 c1.39-0.183,1.5,1.227,1.688,1.931c0.292,1.099-0.771,0.969-1.523,0.872c-0.254-0.032-0.694,0.02-0.56,0.204 c0.249,0.341-0.608,0.786,0.149,0.942c0.8,0.166,0.556,0.577,0.203,0.96c-0.626,0.682-0.514,1.271,0.325,1.574 c0.279,0.102,0.549,0.224,1.194,0.492c-2.083-0.088-2.305,1.774-3.745,2.297c0.622,0.25,0.972,0.062,1.354,0.005 c1.344-0.195,2.482-1.018,3.932-0.986c1.574,0.032,3.191-0.13,4.726-0.607c0.301-0.093,0.736-0.282,0.732-0.688 c-0.005-0.488-0.746-0.022-0.859-0.515c0.119-0.142,0.198-0.279,0.318-0.361c0.613-0.424,1.186-0.935,1.009-1.738 c-0.184-0.842-0.965-0.834-1.625-0.772c-0.458,0.039-0.396-0.134-0.455-0.466c-0.373-2.122-2.626-3.087-3.198-5.114 c-0.057-0.203-0.347-0.403-0.572-0.483C9.407,5.496,9.395,5.03,9.94,4.348c0.281-0.354,0.427-0.811,0.683-1.189 c0.52-0.763,0.36-1.106-0.583-1.078C9.306,2.103,8.572,2.086,7.722,2.086c0.193-0.769,0.728-0.923,1.059-1.27 c0.285-0.295,0.495-0.908-0.163-0.805C7.493,0.19,5.986-0.293,5.445,1.296C5.4,1.425,5.354,1.546,5.306,1.658 c-0.347,0.777-0.843,1.076-1.73,0.519l0,0l0,0l0,0C3.557,2.148,3.556,2.121,3.521,2.096C3.513,2.099,3.504,2.101,3.496,2.104 C3.493,2.111,3.488,2.117,3.485,2.122H3.482z"></path>
        <path style="fill:#ffffff;" d="M1.482,8.877c-0.022,0.305,0.208,0.517,0.41,0.55c0.879,0.143,1.77,0.296,2.654,0.285 C4.975,9.71,5.374,9.337,5.407,8.677C5.019,8.19,4.972,7.275,3.991,7.221C3.233,7.176,1.526,8.317,1.482,8.877z"></path>
        <path style="fill:#ffffff;" d="M4.309,0.316C3.364,0.568,2.819,1.07,2.886,2.085C2.154,2.157,2.514,2.49,2.681,2.751 c0.08-0.182,0.257-0.346,0.384-0.536c0.143-0.037,0.287-0.076,0.43-0.112C3.754,1.532,4.579,1.229,4.309,0.316z"></path>
        <path style="fill:#ffffff;" d="M2.647,3.033C2.799,2.98,2.758,2.874,2.68,2.751C2.641,2.837,2.618,2.927,2.647,3.033z"></path>
    </g>
    </g>
</svg>